<svg xmlns="http://www.w3.org/2000/svg" xmlns:xlink="http://www.w3.org/1999/xlink" width="424" height="140" viewBox="0 0 424 140"><defs><path id="91kxa" d="M103.95 241.34h2.64v33.12h20.85v2.39h-23.49z"/><path id="91kxb" d="M133.18 241.34h25.27v2.38h-22.63v14.06h20.34v2.38h-20.34v14.3h22.88v2.39h-25.52z"/><path id="91kxc" d="M164.69 241.34h2.48l24.52 30.9v-30.9h2.53v35.51h-1.98l-25.02-31.56v31.56h-2.53z"/><path id="91kxd" d="M219.44 277.45c-2.7 0-5.15-.5-7.33-1.5a17.5 17.5 0 0 1-9.21-9.8 19.26 19.26 0 0 1-1.27-6.96v-.1c0-2.44.44-4.77 1.3-6.98a18.35 18.35 0 0 1 3.63-5.86 17.16 17.16 0 0 1 12.99-5.53 17.43 17.43 0 0 1 16.53 11.32 19.23 19.23 0 0 1 1.28 7.05c0 2.43-.44 4.76-1.3 6.98a18.46 18.46 0 0 1-3.63 5.85 17.1 17.1 0 0 1-5.65 4.03c-2.22 1-4.67 1.5-7.34 1.5m.1-2.38a14.59 14.59 0 0 0 10.84-4.64 15.57 15.57 0 0 0 3.12-5.05c.74-1.93 1.12-4 1.12-6.2v-.1c0-2.19-.39-4.26-1.15-6.2a15.79 15.79 0 0 0-3.14-5.08 14.86 14.86 0 0 0-10.89-4.7 14.64 14.64 0 0 0-13.95 9.7c-.75 1.92-1.12 3.99-1.12 6.19v.1c0 2.2.38 4.27 1.14 6.21.77 1.95 1.81 3.64 3.15 5.08a14.9 14.9 0 0 0 4.8 3.42c1.86.85 3.88 1.27 6.09 1.27"/><path id="91kxe" d="M239.25 241.34h2.94l13.9 32.67 13.96-32.67h2.8L257.2 277.1h-2.33z"/><path id="91kxf" d="M292.53 277.45a17.42 17.42 0 0 1-12.94-5.5 17.82 17.82 0 0 1-3.6-5.8 19.3 19.3 0 0 1-1.27-6.96v-.1a19.1 19.1 0 0 1 4.93-12.84 17.18 17.18 0 0 1 12.99-5.53 17.45 17.45 0 0 1 12.94 5.5 17.9 17.9 0 0 1 3.6 5.82 19.22 19.22 0 0 1 1.27 7.05 19.02 19.02 0 0 1-4.92 12.83 17.14 17.14 0 0 1-5.66 4.03c-2.22 1-4.66 1.5-7.34 1.5m.11-2.38a14.59 14.59 0 0 0 10.84-4.64 15.62 15.62 0 0 0 3.12-5.05c.74-1.93 1.12-4 1.12-6.2v-.1c0-2.19-.38-4.26-1.15-6.2a15.78 15.78 0 0 0-3.14-5.08 14.9 14.9 0 0 0-4.8-3.42 14.56 14.56 0 0 0-6.1-1.27 14.64 14.64 0 0 0-13.95 9.69c-.74 1.92-1.12 3.99-1.12 6.19v.1c0 2.2.39 4.27 1.15 6.21a15.7 15.7 0 0 0 3.15 5.08 14.85 14.85 0 0 0 4.79 3.42c1.86.85 3.9 1.27 6.1 1.27"/><path id="91kxg" d="M279.45 322.65h-.62a5.29 5.29 0 0 1-5.3-5.3v-16.41h5.92v-8.2h-5.92v-9.47h-8.22v9.47h-5.28v8.2h5.28v17.34h.04v.34a11.87 11.87 0 0 0 14.1 11.65z"/><path id="91kxh" d="M193.9 309.87a17.26 17.26 0 0 0-30.33-11.23 17.21 17.21 0 0 0-22.11-3.45v-1.92h-8.23v36.47h8.28s-.02-6.36 0-6.36v-13.5a8.97 8.97 0 0 1 17.9-.86l-.01.85v19.88H167.74v-19.8-.08c0-.28 0-.56-.02-.84a8.97 8.97 0 0 1 17.9.84v19.88h8.28v-19.8-.08"/><path id="91kxi" d="M118.63 307.53l-.71-.22c-3.77-1.22-7.02-2.26-7.02-4.49 0-1.92 1.74-3.12 4.55-3.12 2.78 0 6.37 1.2 9.84 3.32l.4.25 3.71-6.62-.36-.24a25.35 25.35 0 0 0-13.39-4.14c-7.78 0-13.2 4.73-13.2 11.5 0 7.1 5.93 9.37 11.5 10.94l.84.26c3.67 1.11 6.83 2.07 6.83 4.45 0 2.13-1.9 3.4-5.1 3.4-3.69 0-7.74-1.53-11.43-4.32l-.4-.3-4.16 6.33.33.26a25.56 25.56 0 0 0 15.46 5.45c8.47 0 13.74-4.54 13.74-11.84 0-6.43-5.5-9.02-11.43-10.87"/><path id="91kxj" d="M257.2 300.9v-8.18h-.99c-3.3 0-6.4.95-9.02 2.56v-2h-8.23v36.47h8.28s-.02-6.38 0-6.37v-13.5a8.97 8.97 0 0 1 8.97-8.98z"/><path id="91kxk" d="M234.83 293.28h-8.27v2.53a18.69 18.69 0 0 0-10.6-3.28 18.92 18.92 0 0 0-18.88 18.99 18.93 18.93 0 0 0 18.87 18.98c3.95 0 7.58-1.22 10.61-3.29v2.54h8.27V311.5zm-18.88 28.94a10.68 10.68 0 0 1-10.65-10.7 10.7 10.7 0 0 1 10.65-10.72c5.63 0 10.23 4.4 10.61 9.97v1.49a10.65 10.65 0 0 1-10.6 9.96z"/><path id="91kxl" d="M302.19 293.4h11.85c2.77 0 5.32.45 7.65 1.34 2.32.9 4.32 2.15 6 3.74a16.66 16.66 0 0 1 3.88 5.61 17.63 17.63 0 0 1 1.38 7v.1c0 2.5-.46 4.84-1.38 7.01a16.51 16.51 0 0 1-3.89 5.64 18.35 18.35 0 0 1-6 3.76 20.66 20.66 0 0 1-7.64 1.38h-11.85zm11.85 33.2c2.47 0 4.7-.4 6.7-1.2a14.5 14.5 0 0 0 8.3-8.11 15.5 15.5 0 0 0 1.16-6v-.1c0-2.1-.38-4.1-1.15-5.97a14.74 14.74 0 0 0-8.3-8.21c-2-.82-4.24-1.23-6.71-1.23h-9.2v30.82z"/><path id="91kxm" d="M342.3 328.98h2.64V293.4h-2.64z"/><path id="91kxn" d="M367.93 329.49c-2.85 0-5.41-.48-7.7-1.43-2.3-.94-4.5-2.37-6.64-4.26l1.73-1.99c.99.92 1.96 1.7 2.93 2.37a16.12 16.12 0 0 0 6.17 2.59c1.12.22 2.34.33 3.66.33 1.32 0 2.54-.18 3.66-.54a8.59 8.59 0 0 0 2.85-1.47 6.8 6.8 0 0 0 1.83-2.24c.44-.86.66-1.8.66-2.81v-.11c0-.94-.14-1.8-.43-2.54a4.9 4.9 0 0 0-1.58-2.03 11.6 11.6 0 0 0-3.08-1.66 32.28 32.28 0 0 0-4.98-1.34 34.49 34.49 0 0 1-5.49-1.55 13.59 13.59 0 0 1-3.74-2.09 7.2 7.2 0 0 1-2.1-2.77 9.2 9.2 0 0 1-.66-3.6v-.1c0-1.33.28-2.55.86-3.69a9.43 9.43 0 0 1 2.39-2.97c1.01-.85 2.22-1.51 3.6-1.99 1.4-.47 2.92-.71 4.59-.71 2.57 0 4.8.36 6.68 1.07 1.88.71 3.72 1.8 5.52 3.25l-1.68 2.08a16.47 16.47 0 0 0-5.11-3.1 16.27 16.27 0 0 0-5.52-.91c-1.32 0-2.51.18-3.58.54a8.82 8.82 0 0 0-2.75 1.44 6.38 6.38 0 0 0-1.75 2.14c-.4.8-.61 1.67-.61 2.59v.1c0 .95.14 1.8.43 2.57.29.76.81 1.46 1.58 2.08.76.63 1.82 1.2 3.18 1.7 1.35.51 3.08.99 5.18 1.43 4.13.85 7.12 2.04 8.95 3.58a7.74 7.74 0 0 1 2.74 6.23v.1c0 1.42-.3 2.74-.89 3.94a9.19 9.19 0 0 1-2.44 3.07 11.37 11.37 0 0 1-3.7 1.99c-1.45.47-3.03.7-4.76.7"/><path id="91kxo" d="M388.42 293.4h12.91c1.97 0 3.75.25 5.37.73 1.6.5 3 1.2 4.16 2.14a9.65 9.65 0 0 1 2.72 3.4c.65 1.34.97 2.87.97 4.6v.1c0 1.87-.37 3.51-1.12 4.94a10.35 10.35 0 0 1-3.02 3.55 13.41 13.41 0 0 1-4.43 2.14c-1.67.48-3.45.7-5.31.7h-9.6v13.28h-2.65zm12.4 19.92c1.67 0 3.17-.2 4.53-.62 1.35-.4 2.51-.99 3.48-1.76a8.02 8.02 0 0 0 3.07-6.42v-.1c0-1.43-.26-2.68-.78-3.75a7.3 7.3 0 0 0-2.21-2.69 10.25 10.25 0 0 0-3.41-1.63 16.07 16.07 0 0 0-4.37-.57h-10.07v17.54z"/><path id="91kxp" d="M422.37 293.4h2.64v33.19h20.9v2.39h-23.54z"/><path id="91kxq" d="M467.37 293.15h2.54l16.57 35.83h-2.9l-4.52-9.96h-21l-4.52 9.96h-2.75zm10.57 23.47l-9.36-20.57-9.4 20.57z"/><path id="91kxr" d="M505.6 314.9l-15.25-21.5h3.3l13.33 19.11 13.37-19.11h3.15l-15.25 21.44v14.14h-2.64z"/><path id="91kxs" d="M102.06 354.54h3l4.98 15.2 5.09-15.27h2.34l5.13 15.26 4.98-15.19h2.92l-6.66 19.07h-2.45l-5.09-14.93-5.12 14.93h-2.5z"/><path id="91kxt" d="M133.43 350.4h3.22v-3.11h-3.22zm.18 23.06h2.82v-18.92h-2.82z"/><path id="91kxu" d="M147.49 373.79c-.76 0-1.47-.1-2.12-.3-.66-.19-1.23-.5-1.7-.93a4.32 4.32 0 0 1-1.12-1.66c-.27-.68-.4-1.5-.4-2.45v-11.42h-2.64v-2.5h2.63v-5.7h2.82v5.7h6v2.5h-6v11.02c0 1.17.3 1.99.88 2.45.59.46 1.36.7 2.3.7a6.4 6.4 0 0 0 2.75-.62v2.4c-.48.27-1 .48-1.55.6-.55.14-1.17.21-1.85.21"/><path id="91kxv" d="M154.11 346.74h2.82v11.09a8.92 8.92 0 0 1 2.49-2.62 6.8 6.8 0 0 1 3.99-1.08c1.15 0 2.16.19 3.05.55a6.31 6.31 0 0 1 3.7 3.95c.33.93.5 1.96.5 3.08v11.75h-2.82v-11.03c0-1.75-.45-3.14-1.36-4.16-.9-1.03-2.2-1.54-3.88-1.54-.8 0-1.55.14-2.25.42a5.25 5.25 0 0 0-3 3.09 6.68 6.68 0 0 0-.42 2.4v10.82h-2.82z"/><path id="91kxw" d="M190.32 373.79c-.76 0-1.47-.1-2.12-.3-.66-.19-1.23-.5-1.7-.93a4.32 4.32 0 0 1-1.12-1.66c-.27-.68-.4-1.5-.4-2.45v-11.42h-2.64v-2.5h2.63v-5.7h2.82v5.7h6v2.5h-6v11.02c0 1.17.3 1.99.88 2.45.59.46 1.36.7 2.3.7a6.4 6.4 0 0 0 2.75-.62v2.4c-.48.27-1 .48-1.55.6-.55.14-1.17.21-1.85.21"/><path id="91kxx" d="M196.95 346.74h2.82v11.09a8.89 8.89 0 0 1 2.49-2.62 6.8 6.8 0 0 1 3.99-1.08c1.14 0 2.16.19 3.05.55.9.37 1.65.89 2.27 1.56.63.67 1.1 1.47 1.43 2.4.33.92.5 1.95.5 3.07v11.75h-2.82v-11.03c0-1.75-.45-3.14-1.36-4.16-.9-1.03-2.2-1.54-3.88-1.54-.8 0-1.55.14-2.25.42a5.24 5.24 0 0 0-3 3.09 6.62 6.62 0 0 0-.42 2.4v10.82h-2.82z"/><path id="91kxy" d="M219.36 365.16c.1 1 .34 1.89.73 2.67a6.44 6.44 0 0 0 5.93 3.62c1.31 0 2.44-.24 3.38-.73a10 10 0 0 0 2.58-1.94l1.76 1.57a11.57 11.57 0 0 1-3.26 2.58 9.6 9.6 0 0 1-4.54.97 9.43 9.43 0 0 1-6.66-2.72 9.6 9.6 0 0 1-2.03-3.13c-.5-1.22-.75-2.56-.75-4.03 0-1.36.22-2.65.67-3.86a9.7 9.7 0 0 1 1.9-3.15 8.76 8.76 0 0 1 6.5-2.87 8.17 8.17 0 0 1 6.51 2.93c.77.9 1.34 1.96 1.73 3.18.4 1.22.59 2.53.59 3.92v.42c0 .16-.01.35-.04.57zm12.19-2.31a8.93 8.93 0 0 0-.55-2.42 6.78 6.78 0 0 0-1.2-2.02 5.45 5.45 0 0 0-4.3-1.9 5.5 5.5 0 0 0-4.13 1.81 7.41 7.41 0 0 0-1.34 2.02 8.17 8.17 0 0 0-.67 2.51z"/><path id="91kxz" d="M259.03 373.9c-2.03 0-3.84-.34-5.43-1.03a12.18 12.18 0 0 1-6.7-7c-.6-1.6-.9-3.32-.9-5.15v-.07a13.76 13.76 0 0 1 3.55-9.26 12.46 12.46 0 0 1 9.3-3.99c1.07 0 2.05.07 2.95.22a11.95 11.95 0 0 1 4.65 1.74c.67.43 1.32.9 1.95 1.44l-1.86 2.2c-.5-.44-1-.84-1.54-1.19a10.2 10.2 0 0 0-3.79-1.52 12.9 12.9 0 0 0-2.47-.22 9.1 9.1 0 0 0-3.92.84 9.5 9.5 0 0 0-3.07 2.27 11.26 11.26 0 0 0-2.75 7.4v.07c0 1.54.24 2.95.71 4.24a10 10 0 0 0 2.04 3.37c.88.95 1.94 1.7 3.18 2.23 1.25.54 2.65.81 4.21.81a12.12 12.12 0 0 0 7.4-2.56v-6.37h-7.8v-2.6h10.58v10.21c-1.2 1.08-2.67 2-4.41 2.77-1.75.76-3.7 1.15-5.88 1.15"/><path id="91kxA" d="M282.17 373.9a9.64 9.64 0 0 1-7.03-2.9 9.6 9.6 0 0 1-2.78-6.9v-.08a9.97 9.97 0 0 1 2.78-6.95 9.77 9.77 0 0 1 7.1-2.93 9.78 9.78 0 0 1 9.12 6.02c.49 1.18.73 2.45.73 3.79v.07a9.97 9.97 0 0 1-2.82 6.95 9.91 9.91 0 0 1-7.1 2.93m.08-2.52a6.69 6.69 0 0 0 5.01-2.16 7.68 7.68 0 0 0 1.94-5.12v-.08c0-1.02-.18-1.98-.53-2.87a7.29 7.29 0 0 0-3.72-3.94 6.62 6.62 0 0 0-2.78-.58 6.7 6.7 0 0 0-6.4 4.48 7.82 7.82 0 0 0-.52 2.84v.07a7.68 7.68 0 0 0 2 5.2 7.02 7.02 0 0 0 2.21 1.57c.86.4 1.78.59 2.79.59"/><path id="91kxB" d="M303.99 373.9a9.66 9.66 0 0 1-7.03-2.9 9.6 9.6 0 0 1-2.78-6.9v-.08a9.97 9.97 0 0 1 2.78-6.95 9.75 9.75 0 0 1 7.1-2.93 9.78 9.78 0 0 1 9.12 6.02c.49 1.18.73 2.45.73 3.79v.07a10.07 10.07 0 0 1-2.82 6.95 9.93 9.93 0 0 1-7.1 2.93m.07-2.52a6.69 6.69 0 0 0 5.02-2.16 7.22 7.22 0 0 0 1.43-2.3c.34-.89.5-1.82.5-2.83v-.07a7.7 7.7 0 0 0-.52-2.87 7.33 7.33 0 0 0-3.72-3.94 6.62 6.62 0 0 0-2.78-.58 6.7 6.7 0 0 0-6.4 4.48 7.88 7.88 0 0 0-.52 2.84v.07a7.67 7.67 0 0 0 2 5.2 7.01 7.01 0 0 0 2.21 1.57c.85.4 1.78.59 2.78.59"/><path id="91kxC" d="M325.55 379.4c-1.59 0-3.1-.23-4.54-.67-1.44-.43-2.8-1.1-4.06-1.97l1.28-2.2c1.1.78 2.24 1.38 3.44 1.8 1.2.41 2.48.62 3.84.62 2.1 0 3.77-.57 5.02-1.7 1.24-1.14 1.87-2.82 1.87-5.04v-2.23a11.94 11.94 0 0 1-3.04 2.82 7.85 7.85 0 0 1-4.4 1.17 9.03 9.03 0 0 1-6.14-2.4 8.68 8.68 0 0 1-2.75-6.46v-.07a8.62 8.62 0 0 1 5.6-8.3 9.04 9.04 0 0 1 5.73-.32 8.81 8.81 0 0 1 3.64 2.03c.5.47.93.95 1.32 1.47v-3.4h2.82v15.62c0 1.46-.2 2.75-.62 3.86a7.84 7.84 0 0 1-1.8 2.84 7.95 7.95 0 0 1-3.1 1.9c-1.23.42-2.6.62-4.11.62m-.04-9.88c.9 0 1.77-.15 2.6-.46a6.88 6.88 0 0 0 3.77-3.34c.4-.78.59-1.65.59-2.6v-.08c0-.97-.2-1.85-.59-2.63a6.46 6.46 0 0 0-1.55-2.01 7.48 7.48 0 0 0-7.36-1.3c-.8.3-1.49.73-2.09 1.28a5.83 5.83 0 0 0-1.4 2 6.5 6.5 0 0 0-.52 2.63v.07a6.34 6.34 0 0 0 4.04 5.97c.8.31 1.64.47 2.51.47"/><path id="91kxD" d="M339.9 373.46h2.82v-26.72h-2.82z"/><path id="91kxE" d="M349.13 365.16c.1 1 .34 1.89.73 2.67a6.44 6.44 0 0 0 5.93 3.62c1.31 0 2.44-.24 3.38-.73a10 10 0 0 0 2.58-1.94l1.76 1.57a11.57 11.57 0 0 1-3.26 2.58 9.6 9.6 0 0 1-4.54.97 9.43 9.43 0 0 1-6.66-2.72 9.6 9.6 0 0 1-2.03-3.13c-.5-1.22-.75-2.56-.75-4.03 0-1.36.22-2.65.67-3.86a9.7 9.7 0 0 1 1.9-3.15 8.76 8.76 0 0 1 6.5-2.87 8.17 8.17 0 0 1 6.51 2.93c.77.9 1.34 1.96 1.73 3.18.4 1.22.59 2.53.59 3.92v.42c0 .16-.01.35-.04.57zm12.19-2.31a8.93 8.93 0 0 0-.55-2.42 6.78 6.78 0 0 0-1.2-2.02 5.45 5.45 0 0 0-4.3-1.9 5.5 5.5 0 0 0-4.13 1.81 7.41 7.41 0 0 0-1.34 2.02 8.17 8.17 0 0 0-.67 2.51z"/><path id="91kxF" d="M386.39 347.66h2.7l11.68 25.8h-3.1l-3-6.77H380.7l-3.04 6.77h-2.96zm7.13 16.42l-5.82-13.05-5.85 13.05z"/><path id="91kxG" d="M409.78 373.83c-1.36 0-2.74-.25-4.13-.75-1.4-.5-2.63-1.18-3.7-2.03l1.43-2.02a12.5 12.5 0 0 0 3.2 1.8c1.11.41 2.23.62 3.35.62 1.15 0 2.09-.27 2.82-.8a2.57 2.57 0 0 0 1.1-2.2v-.08c0-.46-.13-.86-.39-1.2-.25-.35-.6-.64-1.04-.9a8.53 8.53 0 0 0-1.52-.68c-.57-.2-1.17-.38-1.78-.55-.73-.22-1.47-.45-2.21-.71a9.09 9.09 0 0 1-2.01-.97 4.9 4.9 0 0 1-1.47-1.46 3.95 3.95 0 0 1-.57-2.2v-.07a5.1 5.1 0 0 1 1.82-3.94 6.05 6.05 0 0 1 2.05-1.1c.79-.25 1.65-.38 2.58-.38 1.17 0 2.35.19 3.55.57 1.2.38 2.28.88 3.26 1.52l-1.29 2.12c-.87-.56-1.8-1-2.76-1.34a8.75 8.75 0 0 0-2.84-.5c-1.12 0-2 .27-2.67.8a2.4 2.4 0 0 0-.99 1.95v.08c0 .44.14.82.4 1.15.27.33.63.62 1.09.86.45.24.97.46 1.55.66.59.2 1.2.39 1.83.58.73.22 1.46.47 2.18.74.72.27 1.37.6 1.96 1.02.58.42 1.05.92 1.4 1.5.36.59.54 1.3.54 2.16v.07a5.2 5.2 0 0 1-1.96 4.18c-.6.49-1.3.86-2.12 1.11-.82.26-1.7.39-2.66.39"/><path id="91kxH" d="M426.18 373.83c-1.36 0-2.74-.25-4.13-.75-1.4-.5-2.63-1.18-3.7-2.03l1.43-2.02a12.5 12.5 0 0 0 3.2 1.8c1.11.41 2.23.62 3.35.62 1.15 0 2.09-.27 2.82-.8a2.57 2.57 0 0 0 1.1-2.2v-.08c0-.46-.13-.86-.39-1.2-.25-.35-.6-.64-1.04-.9a8.53 8.53 0 0 0-1.52-.68c-.57-.2-1.17-.38-1.78-.55-.73-.22-1.47-.45-2.21-.71a9.09 9.09 0 0 1-2.01-.97 4.9 4.9 0 0 1-1.47-1.46 3.95 3.95 0 0 1-.57-2.2v-.07a5.1 5.1 0 0 1 1.82-3.94 6.05 6.05 0 0 1 2.05-1.1c.79-.25 1.65-.38 2.58-.38 1.17 0 2.35.19 3.55.57 1.2.38 2.28.88 3.26 1.52l-1.29 2.12c-.87-.56-1.8-1-2.76-1.34a8.75 8.75 0 0 0-2.84-.5c-1.12 0-2 .27-2.67.8a2.4 2.4 0 0 0-.99 1.95v.08c0 .44.14.82.4 1.15.27.33.63.62 1.09.86.45.24.97.46 1.55.66.59.2 1.2.39 1.83.58.73.22 1.46.47 2.18.74.72.27 1.37.6 1.96 1.02.58.42 1.05.92 1.4 1.5.36.59.54 1.3.54 2.16v.07a5.2 5.2 0 0 1-1.96 4.18c-.6.49-1.3.86-2.12 1.11-.82.26-1.7.39-2.66.39"/><path id="91kxI" d="M436.4 350.4h3.22v-3.11h-3.22zm.18 23.06h2.82v-18.92h-2.82z"/><path id="91kxJ" d="M450.38 373.83c-1.36 0-2.74-.25-4.13-.75-1.4-.5-2.63-1.18-3.7-2.03l1.43-2.02a12.5 12.5 0 0 0 3.2 1.8c1.11.41 2.23.62 3.35.62 1.15 0 2.09-.27 2.82-.8a2.57 2.57 0 0 0 1.1-2.2v-.08c0-.46-.13-.86-.39-1.2-.25-.35-.6-.64-1.04-.9a8.53 8.53 0 0 0-1.52-.68c-.57-.2-1.17-.38-1.78-.55-.73-.22-1.47-.45-2.21-.71a9.09 9.09 0 0 1-2.01-.97 4.9 4.9 0 0 1-1.47-1.46 3.95 3.95 0 0 1-.57-2.2v-.07a5.1 5.1 0 0 1 1.82-3.94 6.05 6.05 0 0 1 2.05-1.1c.79-.25 1.65-.38 2.58-.38 1.17 0 2.35.19 3.55.57 1.2.38 2.28.88 3.26 1.52l-1.29 2.12c-.87-.56-1.8-1-2.76-1.34a8.75 8.75 0 0 0-2.84-.5c-1.12 0-2 .27-2.67.8a2.4 2.4 0 0 0-.99 1.95v.08c0 .44.14.82.4 1.15.27.33.63.62 1.09.86.45.24.97.46 1.55.66.59.2 1.2.39 1.83.58.73.22 1.46.47 2.18.74.72.27 1.37.6 1.96 1.02.58.42 1.05.92 1.4 1.5.36.59.54 1.3.54 2.16v.07a5.2 5.2 0 0 1-1.96 4.18c-.6.49-1.3.86-2.12 1.11-.82.26-1.7.39-2.66.39"/><path id="91kxK" d="M466.85 373.79c-.76 0-1.46-.1-2.12-.3-.66-.19-1.23-.5-1.7-.93a4.29 4.29 0 0 1-1.12-1.66c-.27-.68-.4-1.5-.4-2.45v-11.42h-2.64v-2.5h2.63v-5.7h2.82v5.7h6.01v2.5h-6v11.02c0 1.17.29 1.99.87 2.45.59.46 1.36.7 2.31.7a6.44 6.44 0 0 0 2.74-.62v2.4c-.48.27-1 .48-1.55.6a7.8 7.8 0 0 1-1.85.21"/><path id="91kxL" d="M479.11 373.87c-.87 0-1.74-.13-2.6-.37a6.76 6.76 0 0 1-2.26-1.12 5.25 5.25 0 0 1-2.2-4.41v-.07c0-1.02.2-1.92.59-2.69.38-.77.94-1.4 1.66-1.92.72-.51 1.57-.9 2.56-1.17 1-.27 2.08-.4 3.28-.4a19.86 19.86 0 0 1 5.78.8v-.58c0-1.67-.49-2.94-1.46-3.8-.98-.86-2.36-1.3-4.14-1.3-1.12 0-2.14.13-3.05.37-.92.25-1.81.58-2.7 1l-.84-2.33c1.05-.5 2.11-.89 3.19-1.18 1.07-.3 2.3-.45 3.7-.45 2.68 0 4.72.7 6.11 2.09 1.32 1.31 1.98 3.17 1.98 5.56v11.56h-2.79v-2.81a8.16 8.16 0 0 1-6.8 3.22m.56-2.3c.88 0 1.7-.13 2.45-.37a6.3 6.3 0 0 0 1.99-1.04 5.02 5.02 0 0 0 1.35-1.6c.33-.62.5-1.31.5-2.06v-1.75c-.72-.2-1.52-.38-2.42-.55-.9-.17-1.93-.26-3.1-.26-1.75 0-3.1.35-4.07 1.04a3.24 3.24 0 0 0-1.44 2.76v.07a3.3 3.3 0 0 0 1.43 2.77c.43.31.94.56 1.5.73.58.17 1.18.25 1.81.25"/><path id="91kxM" d="M492.85 354.54h2.82v3.3a8.92 8.92 0 0 1 2.49-2.62 6.8 6.8 0 0 1 3.99-1.08c1.15 0 2.16.18 3.05.55a6.31 6.31 0 0 1 3.7 3.95c.33.93.5 1.95.5 3.08v11.74h-2.82v-11.02c0-1.76-.45-3.14-1.36-4.17-.9-1.02-2.2-1.53-3.88-1.53-.8 0-1.55.14-2.25.42a5.25 5.25 0 0 0-3 3.08 6.68 6.68 0 0 0-.42 2.41v10.81h-2.82z"/><path id="91kxN" d="M519.9 373.79c-.76 0-1.47-.1-2.12-.3-.66-.19-1.23-.5-1.7-.93a4.32 4.32 0 0 1-1.12-1.66c-.27-.68-.4-1.5-.4-2.45v-11.42h-2.64v-2.5h2.63v-5.7h2.82v5.7h6v2.5h-6v11.02c0 1.17.3 1.99.88 2.45.59.46 1.36.7 2.3.7a6.4 6.4 0 0 0 2.75-.62v2.4c-.48.27-1 .48-1.55.6-.55.14-1.17.21-1.85.21"/></defs><g><g transform="translate(-100 -240)"><g><use fill="#fff" xlink:href="#91kxa"/></g><g><use fill="#fff" xlink:href="#91kxb"/></g><g><use fill="#fff" xlink:href="#91kxc"/></g><g><use fill="#fff" xlink:href="#91kxd"/></g><g><use fill="#fff" xlink:href="#91kxe"/></g><g><use fill="#fff" xlink:href="#91kxf"/></g><g><use fill="#fff" xlink:href="#91kxg"/></g><g><use fill="#fff" xlink:href="#91kxh"/></g><g><use fill="#fff" xlink:href="#91kxi"/></g><g><use fill="#fff" xlink:href="#91kxj"/></g><g><use fill="#fff" xlink:href="#91kxk"/></g><g><use fill="#fff" xlink:href="#91kxl"/></g><g><use fill="#fff" xlink:href="#91kxm"/></g><g><use fill="#fff" xlink:href="#91kxn"/></g><g><use fill="#fff" xlink:href="#91kxo"/></g><g><use fill="#fff" xlink:href="#91kxp"/></g><g><use fill="#fff" xlink:href="#91kxq"/></g><g><use fill="#fff" xlink:href="#91kxr"/></g><g><use fill="#fff" xlink:href="#91kxs"/></g><g><use fill="#fff" xlink:href="#91kxt"/></g><g><use fill="#fff" xlink:href="#91kxu"/></g><g><use fill="#fff" xlink:href="#91kxv"/></g><g><use fill="#fff" xlink:href="#91kxw"/></g><g><use fill="#fff" xlink:href="#91kxx"/></g><g><use fill="#fff" xlink:href="#91kxy"/></g><g><use fill="#fff" xlink:href="#91kxz"/></g><g><use fill="#fff" xlink:href="#91kxA"/></g><g><use fill="#fff" xlink:href="#91kxB"/></g><g><use fill="#fff" xlink:href="#91kxC"/></g><g><use fill="#fff" xlink:href="#91kxD"/></g><g><use fill="#fff" xlink:href="#91kxE"/></g><g><use fill="#fff" xlink:href="#91kxF"/></g><g><use fill="#fff" xlink:href="#91kxG"/></g><g><use fill="#fff" xlink:href="#91kxH"/></g><g><use fill="#fff" xlink:href="#91kxI"/></g><g><use fill="#fff" xlink:href="#91kxJ"/></g><g><use fill="#fff" xlink:href="#91kxK"/></g><g><use fill="#fff" xlink:href="#91kxL"/></g><g><use fill="#fff" xlink:href="#91kxM"/></g><g><use fill="#fff" xlink:href="#91kxN"/></g></g></g></svg>